<mxfile host="65bd71144e">
    <diagram id="rFrlz8H3YgA3lfR6zpdZ" name="Page-1">
        <mxGraphModel dx="2052" dy="1048" grid="1" gridSize="10" guides="1" tooltips="1" connect="1" arrows="1" fold="1" page="1" pageScale="1" pageWidth="850" pageHeight="1100" math="0" shadow="0">
            <root>
                <mxCell id="0"/>
                <mxCell id="1" parent="0"/>
                <mxCell id="2" value="" style="group" vertex="1" connectable="0" parent="1">
                    <mxGeometry x="50" y="220" width="270" height="200" as="geometry"/>
                </mxCell>
                <mxCell id="3" value="" style="rounded=1;whiteSpace=wrap;html=1;sketch=1;curveFitting=1;jiggle=2;fillColor=none;" vertex="1" parent="2">
                    <mxGeometry width="270" height="200" as="geometry"/>
                </mxCell>
                <mxCell id="13" value="Reales System" style="text;html=1;align=center;verticalAlign=middle;resizable=0;points=[];autosize=1;strokeColor=none;fillColor=none;fontFamily=Tahoma;fontSize=26;" vertex="1" parent="2">
                    <mxGeometry x="40" y="80" width="190" height="40" as="geometry"/>
                </mxCell>
                <mxCell id="5" value="" style="group" vertex="1" connectable="0" parent="1">
                    <mxGeometry x="480" y="220" width="270" height="200" as="geometry"/>
                </mxCell>
                <mxCell id="6" value="" style="rounded=1;whiteSpace=wrap;html=1;sketch=1;curveFitting=1;jiggle=2;fillColor=none;" vertex="1" parent="5">
                    <mxGeometry width="270" height="200" as="geometry"/>
                </mxCell>
                <mxCell id="14" value="Modell" style="text;html=1;align=center;verticalAlign=middle;resizable=0;points=[];autosize=1;strokeColor=none;fillColor=none;fontFamily=Tahoma;fontSize=26;" vertex="1" parent="5">
                    <mxGeometry x="85" y="80" width="100" height="40" as="geometry"/>
                </mxCell>
                <mxCell id="11" style="edgeStyle=none;html=1;entryX=0;entryY=0.5;entryDx=0;entryDy=0;sketch=1;curveFitting=1;jiggle=2;strokeWidth=3;" edge="1" parent="1" source="3" target="6">
                    <mxGeometry relative="1" as="geometry"/>
                </mxCell>
                <mxCell id="21" style="edgeStyle=none;html=1;entryX=1;entryY=0.5;entryDx=0;entryDy=0;strokeWidth=3;" edge="1" parent="1" source="16" target="18">
                    <mxGeometry relative="1" as="geometry"/>
                </mxCell>
                <mxCell id="16" value="" style="rounded=1;whiteSpace=wrap;html=1;sketch=1;curveFitting=1;jiggle=2;fillColor=none;" vertex="1" parent="1">
                    <mxGeometry x="480" y="520" width="270" height="200" as="geometry"/>
                </mxCell>
                <mxCell id="17" value="Lösung im Modell" style="text;html=1;align=center;verticalAlign=middle;resizable=0;points=[];autosize=1;strokeColor=none;fillColor=none;fontFamily=Tahoma;fontSize=26;" vertex="1" parent="1">
                    <mxGeometry x="500" y="600" width="220" height="40" as="geometry"/>
                </mxCell>
                <mxCell id="22" style="edgeStyle=none;html=1;entryX=0.5;entryY=1;entryDx=0;entryDy=0;strokeWidth=3;sketch=1;curveFitting=1;jiggle=2;" edge="1" parent="1" source="18" target="3">
                    <mxGeometry relative="1" as="geometry"/>
                </mxCell>
                <mxCell id="18" value="" style="rounded=1;whiteSpace=wrap;html=1;sketch=1;curveFitting=1;jiggle=2;fillColor=none;" vertex="1" parent="1">
                    <mxGeometry x="50" y="520" width="270" height="200" as="geometry"/>
                </mxCell>
                <mxCell id="19" value="Lösung in der Realität" style="text;html=1;align=center;verticalAlign=middle;resizable=0;points=[];autosize=1;strokeColor=none;fillColor=none;fontFamily=Tahoma;fontSize=26;" vertex="1" parent="1">
                    <mxGeometry x="50" y="600" width="270" height="40" as="geometry"/>
                </mxCell>
                <mxCell id="20" style="edgeStyle=none;html=1;entryX=0.5;entryY=0;entryDx=0;entryDy=0;strokeWidth=3;" edge="1" parent="1" source="6" target="16">
                    <mxGeometry relative="1" as="geometry"/>
                </mxCell>
                <mxCell id="23" value="&lt;font style=&quot;font-size: 18px;&quot;&gt;Umsetzung&lt;br&gt;Eingriffe&lt;/font&gt;" style="text;html=1;align=center;verticalAlign=middle;resizable=0;points=[];autosize=1;strokeColor=none;fillColor=none;fontFamily=Tahoma;" vertex="1" parent="1">
                    <mxGeometry x="185" y="440" width="110" height="60" as="geometry"/>
                </mxCell>
                <mxCell id="24" value="&lt;span style=&quot;font-size: 18px;&quot;&gt;Modellierung&lt;/span&gt;" style="text;html=1;align=center;verticalAlign=middle;resizable=0;points=[];autosize=1;strokeColor=none;fillColor=none;fontFamily=Tahoma;" vertex="1" parent="1">
                    <mxGeometry x="335" y="270" width="120" height="40" as="geometry"/>
                </mxCell>
                <mxCell id="25" value="&lt;span style=&quot;font-size: 18px;&quot;&gt;Abstraktion&lt;/span&gt;" style="text;html=1;align=center;verticalAlign=middle;resizable=0;points=[];autosize=1;strokeColor=none;fillColor=none;fontFamily=Tahoma;" vertex="1" parent="1">
                    <mxGeometry x="340" y="330" width="110" height="40" as="geometry"/>
                </mxCell>
                <mxCell id="26" value="&lt;span style=&quot;font-size: 18px;&quot;&gt;Idealisierung&lt;/span&gt;" style="text;html=1;align=center;verticalAlign=middle;resizable=0;points=[];autosize=1;strokeColor=none;fillColor=none;fontFamily=Tahoma;" vertex="1" parent="1">
                    <mxGeometry x="335" y="360" width="130" height="40" as="geometry"/>
                </mxCell>
                <mxCell id="27" value="&lt;span style=&quot;font-size: 18px;&quot;&gt;Vereinfachung&lt;/span&gt;" style="text;html=1;align=center;verticalAlign=middle;resizable=0;points=[];autosize=1;strokeColor=none;fillColor=none;fontFamily=Tahoma;" vertex="1" parent="1">
                    <mxGeometry x="330" y="390" width="140" height="40" as="geometry"/>
                </mxCell>
                <mxCell id="28" value="&lt;span style=&quot;font-size: 18px;&quot;&gt;Problemlösen im Modell&lt;/span&gt;" style="text;html=1;align=center;verticalAlign=middle;resizable=0;points=[];autosize=1;strokeColor=none;fillColor=none;fontFamily=Tahoma;" vertex="1" parent="1">
                    <mxGeometry x="620" y="420" width="210" height="40" as="geometry"/>
                </mxCell>
                <mxCell id="29" value="&lt;span style=&quot;font-size: 18px;&quot;&gt;Analytisch&lt;/span&gt;" style="text;html=1;align=center;verticalAlign=middle;resizable=0;points=[];autosize=1;strokeColor=none;fillColor=none;fontFamily=Tahoma;" vertex="1" parent="1">
                    <mxGeometry x="630" y="450" width="100" height="40" as="geometry"/>
                </mxCell>
                <mxCell id="31" value="&lt;span style=&quot;font-size: 18px;&quot;&gt;Experimentell&lt;/span&gt;" style="text;html=1;align=center;verticalAlign=middle;resizable=0;points=[];autosize=1;strokeColor=none;fillColor=none;fontFamily=Tahoma;" vertex="1" parent="1">
                    <mxGeometry x="620" y="480" width="130" height="40" as="geometry"/>
                </mxCell>
                <mxCell id="32" value="&lt;span style=&quot;font-size: 18px;&quot;&gt;Übertragung&lt;/span&gt;" style="text;html=1;align=center;verticalAlign=middle;resizable=0;points=[];autosize=1;strokeColor=none;fillColor=none;fontFamily=Tahoma;" vertex="1" parent="1">
                    <mxGeometry x="340" y="570" width="120" height="40" as="geometry"/>
                </mxCell>
                <mxCell id="33" value="&lt;span style=&quot;font-size: 18px;&quot;&gt;Lösung&lt;/span&gt;" style="text;html=1;align=center;verticalAlign=middle;resizable=0;points=[];autosize=1;strokeColor=none;fillColor=none;fontFamily=Tahoma;" vertex="1" parent="1">
                    <mxGeometry x="370" y="630" width="80" height="40" as="geometry"/>
                </mxCell>
            </root>
        </mxGraphModel>
    </diagram>
</mxfile>